<mxfile host="app.diagrams.net" modified="2024-05-11T13:40:21.395Z" agent="Mozilla/5.0 (Windows NT 10.0; Win64; x64; rv:125.0) Gecko/20100101 Firefox/125.0" etag="93_tORlnF8gZg4o4BCYo" version="24.4.0" type="device">
  <diagram name="Page-1" id="Add4eaFE5lvssFwCDY9i">
    <mxGraphModel dx="2318" dy="1991" grid="1" gridSize="10" guides="1" tooltips="1" connect="1" arrows="1" fold="1" page="1" pageScale="1" pageWidth="850" pageHeight="1100" math="0" shadow="0">
      <root>
        <mxCell id="0" />
        <mxCell id="1" parent="0" />
        <mxCell id="STSBaXRtEPZAdb3EAc6t-1" value="&lt;div&gt;&amp;lt;&amp;lt;entity&amp;gt;&amp;gt;&lt;/div&gt;&lt;div&gt;User&lt;br&gt;&lt;/div&gt;" style="swimlane;fontStyle=1;align=center;verticalAlign=top;childLayout=stackLayout;horizontal=1;startSize=40;horizontalStack=0;resizeParent=1;resizeParentMax=0;resizeLast=0;collapsible=1;marginBottom=0;whiteSpace=wrap;html=1;fillColor=#647687;fontColor=#ffffff;strokeColor=#314354;" parent="1" vertex="1">
          <mxGeometry x="-700" y="-50" width="420" height="464" as="geometry" />
        </mxCell>
        <mxCell id="STSBaXRtEPZAdb3EAc6t-2" value="- userID: int {key}" style="text;strokeColor=none;fillColor=none;align=left;verticalAlign=top;spacingLeft=4;spacingRight=4;overflow=hidden;rotatable=0;points=[[0,0.5],[1,0.5]];portConstraint=eastwest;whiteSpace=wrap;html=1;" parent="STSBaXRtEPZAdb3EAc6t-1" vertex="1">
          <mxGeometry y="40" width="420" height="26" as="geometry" />
        </mxCell>
        <mxCell id="STSBaXRtEPZAdb3EAc6t-3" value="- firstName: String" style="text;strokeColor=none;fillColor=none;align=left;verticalAlign=top;spacingLeft=4;spacingRight=4;overflow=hidden;rotatable=0;points=[[0,0.5],[1,0.5]];portConstraint=eastwest;whiteSpace=wrap;html=1;" parent="STSBaXRtEPZAdb3EAc6t-1" vertex="1">
          <mxGeometry y="66" width="420" height="26" as="geometry" />
        </mxCell>
        <mxCell id="STSBaXRtEPZAdb3EAc6t-4" value="- lastName: String" style="text;strokeColor=none;fillColor=none;align=left;verticalAlign=top;spacingLeft=4;spacingRight=4;overflow=hidden;rotatable=0;points=[[0,0.5],[1,0.5]];portConstraint=eastwest;whiteSpace=wrap;html=1;" parent="STSBaXRtEPZAdb3EAc6t-1" vertex="1">
          <mxGeometry y="92" width="420" height="26" as="geometry" />
        </mxCell>
        <mxCell id="STSBaXRtEPZAdb3EAc6t-5" value="- username: String" style="text;strokeColor=none;fillColor=none;align=left;verticalAlign=top;spacingLeft=4;spacingRight=4;overflow=hidden;rotatable=0;points=[[0,0.5],[1,0.5]];portConstraint=eastwest;whiteSpace=wrap;html=1;" parent="STSBaXRtEPZAdb3EAc6t-1" vertex="1">
          <mxGeometry y="118" width="420" height="26" as="geometry" />
        </mxCell>
        <mxCell id="STSBaXRtEPZAdb3EAc6t-6" value="- e-mail: String" style="text;strokeColor=none;fillColor=none;align=left;verticalAlign=top;spacingLeft=4;spacingRight=4;overflow=hidden;rotatable=0;points=[[0,0.5],[1,0.5]];portConstraint=eastwest;whiteSpace=wrap;html=1;" parent="STSBaXRtEPZAdb3EAc6t-1" vertex="1">
          <mxGeometry y="144" width="420" height="26" as="geometry" />
        </mxCell>
        <mxCell id="STSBaXRtEPZAdb3EAc6t-7" value="- password: String" style="text;strokeColor=none;fillColor=none;align=left;verticalAlign=top;spacingLeft=4;spacingRight=4;overflow=hidden;rotatable=0;points=[[0,0.5],[1,0.5]];portConstraint=eastwest;whiteSpace=wrap;html=1;" parent="STSBaXRtEPZAdb3EAc6t-1" vertex="1">
          <mxGeometry y="170" width="420" height="26" as="geometry" />
        </mxCell>
        <mxCell id="STSBaXRtEPZAdb3EAc6t-8" value="- phoneNumber: String" style="text;strokeColor=none;fillColor=none;align=left;verticalAlign=top;spacingLeft=4;spacingRight=4;overflow=hidden;rotatable=0;points=[[0,0.5],[1,0.5]];portConstraint=eastwest;whiteSpace=wrap;html=1;" parent="STSBaXRtEPZAdb3EAc6t-1" vertex="1">
          <mxGeometry y="196" width="420" height="26" as="geometry" />
        </mxCell>
        <mxCell id="STSBaXRtEPZAdb3EAc6t-9" value="- bDate: date" style="text;strokeColor=none;fillColor=none;align=left;verticalAlign=top;spacingLeft=4;spacingRight=4;overflow=hidden;rotatable=0;points=[[0,0.5],[1,0.5]];portConstraint=eastwest;whiteSpace=wrap;html=1;" parent="STSBaXRtEPZAdb3EAc6t-1" vertex="1">
          <mxGeometry y="222" width="420" height="26" as="geometry" />
        </mxCell>
        <mxCell id="w4Fa_LrAcW7Tb9NilvDa-2" value="- role: String" style="text;strokeColor=none;fillColor=none;align=left;verticalAlign=top;spacingLeft=4;spacingRight=4;overflow=hidden;rotatable=0;points=[[0,0.5],[1,0.5]];portConstraint=eastwest;whiteSpace=wrap;html=1;" vertex="1" parent="STSBaXRtEPZAdb3EAc6t-1">
          <mxGeometry y="248" width="420" height="26" as="geometry" />
        </mxCell>
        <mxCell id="STSBaXRtEPZAdb3EAc6t-10" value="" style="line;strokeWidth=1;fillColor=none;align=left;verticalAlign=middle;spacingTop=-1;spacingLeft=3;spacingRight=3;rotatable=0;labelPosition=right;points=[];portConstraint=eastwest;strokeColor=inherit;" parent="STSBaXRtEPZAdb3EAc6t-1" vertex="1">
          <mxGeometry y="274" width="420" height="8" as="geometry" />
        </mxCell>
        <mxCell id="STSBaXRtEPZAdb3EAc6t-11" value="+ getSuggestion(symbol,companyName,suggestionType)" style="text;strokeColor=none;fillColor=none;align=left;verticalAlign=top;spacingLeft=4;spacingRight=4;overflow=hidden;rotatable=0;points=[[0,0.5],[1,0.5]];portConstraint=eastwest;whiteSpace=wrap;html=1;" parent="STSBaXRtEPZAdb3EAc6t-1" vertex="1">
          <mxGeometry y="282" width="420" height="26" as="geometry" />
        </mxCell>
        <mxCell id="STSBaXRtEPZAdb3EAc6t-86" value="+ viewReport(botId,period)" style="text;strokeColor=none;fillColor=none;align=left;verticalAlign=top;spacingLeft=4;spacingRight=4;overflow=hidden;rotatable=0;points=[[0,0.5],[1,0.5]];portConstraint=eastwest;whiteSpace=wrap;html=1;" parent="STSBaXRtEPZAdb3EAc6t-1" vertex="1">
          <mxGeometry y="308" width="420" height="26" as="geometry" />
        </mxCell>
        <mxCell id="STSBaXRtEPZAdb3EAc6t-91" value="&lt;div&gt;+ createNewUser(name,e-mail,password,phone)&lt;/div&gt;" style="text;strokeColor=none;fillColor=none;align=left;verticalAlign=top;spacingLeft=4;spacingRight=4;overflow=hidden;rotatable=0;points=[[0,0.5],[1,0.5]];portConstraint=eastwest;whiteSpace=wrap;html=1;" parent="STSBaXRtEPZAdb3EAc6t-1" vertex="1">
          <mxGeometry y="334" width="420" height="26" as="geometry" />
        </mxCell>
        <mxCell id="STSBaXRtEPZAdb3EAc6t-94" value="+ login(username,password)" style="text;strokeColor=none;fillColor=none;align=left;verticalAlign=top;spacingLeft=4;spacingRight=4;overflow=hidden;rotatable=0;points=[[0,0.5],[1,0.5]];portConstraint=eastwest;whiteSpace=wrap;html=1;" parent="STSBaXRtEPZAdb3EAc6t-1" vertex="1">
          <mxGeometry y="360" width="420" height="26" as="geometry" />
        </mxCell>
        <mxCell id="STSBaXRtEPZAdb3EAc6t-97" value="+ createPortfolio()" style="text;strokeColor=none;fillColor=none;align=left;verticalAlign=top;spacingLeft=4;spacingRight=4;overflow=hidden;rotatable=0;points=[[0,0.5],[1,0.5]];portConstraint=eastwest;whiteSpace=wrap;html=1;" parent="STSBaXRtEPZAdb3EAc6t-1" vertex="1">
          <mxGeometry y="386" width="420" height="26" as="geometry" />
        </mxCell>
        <mxCell id="E2JHOj5Hm3tcfyDZhWHu-3" value="+ customizeBot(slectedStocks,risk,strategy)" style="text;strokeColor=none;fillColor=none;align=left;verticalAlign=top;spacingLeft=4;spacingRight=4;overflow=hidden;rotatable=0;points=[[0,0.5],[1,0.5]];portConstraint=eastwest;whiteSpace=wrap;html=1;" parent="STSBaXRtEPZAdb3EAc6t-1" vertex="1">
          <mxGeometry y="412" width="420" height="26" as="geometry" />
        </mxCell>
        <mxCell id="STSBaXRtEPZAdb3EAc6t-93" value="+ backtesting(botId,period)" style="text;strokeColor=none;fillColor=none;align=left;verticalAlign=top;spacingLeft=4;spacingRight=4;overflow=hidden;rotatable=0;points=[[0,0.5],[1,0.5]];portConstraint=eastwest;whiteSpace=wrap;html=1;" parent="STSBaXRtEPZAdb3EAc6t-1" vertex="1">
          <mxGeometry y="438" width="420" height="26" as="geometry" />
        </mxCell>
        <mxCell id="STSBaXRtEPZAdb3EAc6t-12" value="&lt;div&gt;&amp;lt;&amp;lt;entity&amp;gt;&amp;gt;&lt;/div&gt;&lt;div&gt;Portfolio&lt;br&gt;&lt;/div&gt;" style="swimlane;fontStyle=1;align=center;verticalAlign=top;childLayout=stackLayout;horizontal=1;startSize=40;horizontalStack=0;resizeParent=1;resizeParentMax=0;resizeLast=0;collapsible=1;marginBottom=0;whiteSpace=wrap;html=1;fillColor=#647687;strokeColor=#314354;fontColor=#ffffff;" parent="1" vertex="1">
          <mxGeometry x="-70" y="180" width="300" height="256" as="geometry" />
        </mxCell>
        <mxCell id="STSBaXRtEPZAdb3EAc6t-13" value="- portfolioID: int {key}" style="text;strokeColor=none;fillColor=none;align=left;verticalAlign=top;spacingLeft=4;spacingRight=4;overflow=hidden;rotatable=0;points=[[0,0.5],[1,0.5]];portConstraint=eastwest;whiteSpace=wrap;html=1;" parent="STSBaXRtEPZAdb3EAc6t-12" vertex="1">
          <mxGeometry y="40" width="300" height="26" as="geometry" />
        </mxCell>
        <mxCell id="STSBaXRtEPZAdb3EAc6t-14" value="- userID: int" style="text;strokeColor=none;fillColor=none;align=left;verticalAlign=top;spacingLeft=4;spacingRight=4;overflow=hidden;rotatable=0;points=[[0,0.5],[1,0.5]];portConstraint=eastwest;whiteSpace=wrap;html=1;" parent="STSBaXRtEPZAdb3EAc6t-12" vertex="1">
          <mxGeometry y="66" width="300" height="26" as="geometry" />
        </mxCell>
        <mxCell id="STSBaXRtEPZAdb3EAc6t-15" value="- quantity: int" style="text;strokeColor=none;fillColor=none;align=left;verticalAlign=top;spacingLeft=4;spacingRight=4;overflow=hidden;rotatable=0;points=[[0,0.5],[1,0.5]];portConstraint=eastwest;whiteSpace=wrap;html=1;" parent="STSBaXRtEPZAdb3EAc6t-12" vertex="1">
          <mxGeometry y="92" width="300" height="26" as="geometry" />
        </mxCell>
        <mxCell id="STSBaXRtEPZAdb3EAc6t-16" value="- createdDate: date" style="text;strokeColor=none;fillColor=none;align=left;verticalAlign=top;spacingLeft=4;spacingRight=4;overflow=hidden;rotatable=0;points=[[0,0.5],[1,0.5]];portConstraint=eastwest;whiteSpace=wrap;html=1;" parent="STSBaXRtEPZAdb3EAc6t-12" vertex="1">
          <mxGeometry y="118" width="300" height="26" as="geometry" />
        </mxCell>
        <mxCell id="STSBaXRtEPZAdb3EAc6t-17" value="- currentDate: date" style="text;strokeColor=none;fillColor=none;align=left;verticalAlign=top;spacingLeft=4;spacingRight=4;overflow=hidden;rotatable=0;points=[[0,0.5],[1,0.5]];portConstraint=eastwest;whiteSpace=wrap;html=1;" parent="STSBaXRtEPZAdb3EAc6t-12" vertex="1">
          <mxGeometry y="144" width="300" height="26" as="geometry" />
        </mxCell>
        <mxCell id="STSBaXRtEPZAdb3EAc6t-18" value="- balance: float" style="text;strokeColor=none;fillColor=none;align=left;verticalAlign=top;spacingLeft=4;spacingRight=4;overflow=hidden;rotatable=0;points=[[0,0.5],[1,0.5]];portConstraint=eastwest;whiteSpace=wrap;html=1;" parent="STSBaXRtEPZAdb3EAc6t-12" vertex="1">
          <mxGeometry y="170" width="300" height="26" as="geometry" />
        </mxCell>
        <mxCell id="STSBaXRtEPZAdb3EAc6t-19" value="" style="line;strokeWidth=1;fillColor=none;align=left;verticalAlign=middle;spacingTop=-1;spacingLeft=3;spacingRight=3;rotatable=0;labelPosition=right;points=[];portConstraint=eastwest;strokeColor=inherit;" parent="STSBaXRtEPZAdb3EAc6t-12" vertex="1">
          <mxGeometry y="196" width="300" height="8" as="geometry" />
        </mxCell>
        <mxCell id="STSBaXRtEPZAdb3EAc6t-20" value="+ sellStock(symbol,companyName,quantity)" style="text;strokeColor=none;fillColor=none;align=left;verticalAlign=top;spacingLeft=4;spacingRight=4;overflow=hidden;rotatable=0;points=[[0,0.5],[1,0.5]];portConstraint=eastwest;whiteSpace=wrap;html=1;" parent="STSBaXRtEPZAdb3EAc6t-12" vertex="1">
          <mxGeometry y="204" width="300" height="26" as="geometry" />
        </mxCell>
        <mxCell id="STSBaXRtEPZAdb3EAc6t-83" value="+ createPortfolio()" style="text;strokeColor=none;fillColor=none;align=left;verticalAlign=top;spacingLeft=4;spacingRight=4;overflow=hidden;rotatable=0;points=[[0,0.5],[1,0.5]];portConstraint=eastwest;whiteSpace=wrap;html=1;" parent="STSBaXRtEPZAdb3EAc6t-12" vertex="1">
          <mxGeometry y="230" width="300" height="26" as="geometry" />
        </mxCell>
        <mxCell id="STSBaXRtEPZAdb3EAc6t-21" style="edgeStyle=orthogonalEdgeStyle;rounded=0;orthogonalLoop=1;jettySize=auto;html=1;exitX=0;exitY=0.5;exitDx=0;exitDy=0;entryX=0.5;entryY=0;entryDx=0;entryDy=0;" parent="1" source="STSBaXRtEPZAdb3EAc6t-26" target="STSBaXRtEPZAdb3EAc6t-1" edge="1">
          <mxGeometry relative="1" as="geometry" />
        </mxCell>
        <mxCell id="STSBaXRtEPZAdb3EAc6t-22" value="&lt;div&gt;&amp;lt;&amp;lt;controller&amp;gt;&amp;gt;&lt;/div&gt;&lt;div&gt;TradingHandler&lt;br&gt;&lt;/div&gt;" style="swimlane;fontStyle=1;align=center;verticalAlign=top;childLayout=stackLayout;horizontal=1;startSize=40;horizontalStack=0;resizeParent=1;resizeParentMax=0;resizeLast=0;collapsible=1;marginBottom=0;whiteSpace=wrap;html=1;fillColor=#647687;fontColor=#ffffff;strokeColor=#314354;" parent="1" vertex="1">
          <mxGeometry x="-10" y="-390" width="330" height="334" as="geometry" />
        </mxCell>
        <mxCell id="STSBaXRtEPZAdb3EAc6t-24" value="&amp;nbsp;&amp;nbsp;&amp;nbsp;&amp;nbsp;&amp;nbsp;&amp;nbsp;&amp;nbsp;&amp;nbsp;&amp;nbsp;&amp;nbsp;&amp;nbsp;&amp;nbsp;&amp;nbsp;&amp;nbsp;&amp;nbsp;&amp;nbsp;&amp;nbsp;&amp;nbsp;&amp;nbsp;&amp;nbsp;&amp;nbsp;&amp;nbsp;&amp;nbsp;&amp;nbsp;&amp;nbsp;&amp;nbsp;&amp;nbsp;&amp;nbsp;&amp;nbsp;&amp;nbsp;&amp;nbsp;&amp;nbsp;&amp;nbsp;&amp;nbsp;&amp;nbsp;&amp;nbsp;&amp;nbsp;&amp;nbsp;&amp;nbsp;&amp;nbsp;&amp;nbsp;&amp;nbsp;&amp;nbsp;&amp;nbsp; " style="text;strokeColor=none;fillColor=none;align=left;verticalAlign=top;spacingLeft=4;spacingRight=4;overflow=hidden;rotatable=0;points=[[0,0.5],[1,0.5]];portConstraint=eastwest;whiteSpace=wrap;html=1;" parent="STSBaXRtEPZAdb3EAc6t-22" vertex="1">
          <mxGeometry y="40" width="330" height="26" as="geometry" />
        </mxCell>
        <mxCell id="STSBaXRtEPZAdb3EAc6t-25" value="" style="line;strokeWidth=1;fillColor=none;align=left;verticalAlign=middle;spacingTop=-1;spacingLeft=3;spacingRight=3;rotatable=0;labelPosition=right;points=[];portConstraint=eastwest;strokeColor=inherit;" parent="STSBaXRtEPZAdb3EAc6t-22" vertex="1">
          <mxGeometry y="66" width="330" height="8" as="geometry" />
        </mxCell>
        <mxCell id="STSBaXRtEPZAdb3EAc6t-26" value="+ predictPrice(setOfData)&lt;div&gt;&lt;br&gt;&lt;/div&gt;" style="text;strokeColor=none;fillColor=none;align=left;verticalAlign=top;spacingLeft=4;spacingRight=4;overflow=hidden;rotatable=0;points=[[0,0.5],[1,0.5]];portConstraint=eastwest;whiteSpace=wrap;html=1;" parent="STSBaXRtEPZAdb3EAc6t-22" vertex="1">
          <mxGeometry y="74" width="330" height="26" as="geometry" />
        </mxCell>
        <mxCell id="STSBaXRtEPZAdb3EAc6t-77" value="+ sellStock(symbol,companyName,quantity)" style="text;strokeColor=none;fillColor=none;align=left;verticalAlign=top;spacingLeft=4;spacingRight=4;overflow=hidden;rotatable=0;points=[[0,0.5],[1,0.5]];portConstraint=eastwest;whiteSpace=wrap;html=1;" parent="STSBaXRtEPZAdb3EAc6t-22" vertex="1">
          <mxGeometry y="100" width="330" height="26" as="geometry" />
        </mxCell>
        <mxCell id="STSBaXRtEPZAdb3EAc6t-78" value="+ buyStock(symbol,companyName,quantity)" style="text;strokeColor=none;fillColor=none;align=left;verticalAlign=top;spacingLeft=4;spacingRight=4;overflow=hidden;rotatable=0;points=[[0,0.5],[1,0.5]];portConstraint=eastwest;whiteSpace=wrap;html=1;" parent="STSBaXRtEPZAdb3EAc6t-22" vertex="1">
          <mxGeometry y="126" width="330" height="26" as="geometry" />
        </mxCell>
        <mxCell id="STSBaXRtEPZAdb3EAc6t-79" value="+ getSuggestion(symbol,companyName,suggestionType)" style="text;strokeColor=none;fillColor=none;align=left;verticalAlign=top;spacingLeft=4;spacingRight=4;overflow=hidden;rotatable=0;points=[[0,0.5],[1,0.5]];portConstraint=eastwest;whiteSpace=wrap;html=1;" parent="STSBaXRtEPZAdb3EAc6t-22" vertex="1">
          <mxGeometry y="152" width="330" height="26" as="geometry" />
        </mxCell>
        <mxCell id="STSBaXRtEPZAdb3EAc6t-85" value="+ viewReport(botId,period)" style="text;strokeColor=none;fillColor=none;align=left;verticalAlign=top;spacingLeft=4;spacingRight=4;overflow=hidden;rotatable=0;points=[[0,0.5],[1,0.5]];portConstraint=eastwest;whiteSpace=wrap;html=1;" parent="STSBaXRtEPZAdb3EAc6t-22" vertex="1">
          <mxGeometry y="178" width="330" height="26" as="geometry" />
        </mxCell>
        <mxCell id="STSBaXRtEPZAdb3EAc6t-88" value="&lt;div&gt;+ createNewUser(name,e-mail,password,phone)&lt;/div&gt;" style="text;strokeColor=none;fillColor=none;align=left;verticalAlign=top;spacingLeft=4;spacingRight=4;overflow=hidden;rotatable=0;points=[[0,0.5],[1,0.5]];portConstraint=eastwest;whiteSpace=wrap;html=1;" parent="STSBaXRtEPZAdb3EAc6t-22" vertex="1">
          <mxGeometry y="204" width="330" height="26" as="geometry" />
        </mxCell>
        <mxCell id="STSBaXRtEPZAdb3EAc6t-90" value="+ login(username,password)" style="text;strokeColor=none;fillColor=none;align=left;verticalAlign=top;spacingLeft=4;spacingRight=4;overflow=hidden;rotatable=0;points=[[0,0.5],[1,0.5]];portConstraint=eastwest;whiteSpace=wrap;html=1;" parent="STSBaXRtEPZAdb3EAc6t-22" vertex="1">
          <mxGeometry y="230" width="330" height="26" as="geometry" />
        </mxCell>
        <mxCell id="STSBaXRtEPZAdb3EAc6t-92" value="+ createPortfolio()" style="text;strokeColor=none;fillColor=none;align=left;verticalAlign=top;spacingLeft=4;spacingRight=4;overflow=hidden;rotatable=0;points=[[0,0.5],[1,0.5]];portConstraint=eastwest;whiteSpace=wrap;html=1;" parent="STSBaXRtEPZAdb3EAc6t-22" vertex="1">
          <mxGeometry y="256" width="330" height="26" as="geometry" />
        </mxCell>
        <mxCell id="E2JHOj5Hm3tcfyDZhWHu-1" value="&lt;div&gt;+ customizeBot(slectedStocks,risk,strategy)&lt;/div&gt;" style="text;strokeColor=none;fillColor=none;align=left;verticalAlign=top;spacingLeft=4;spacingRight=4;overflow=hidden;rotatable=0;points=[[0,0.5],[1,0.5]];portConstraint=eastwest;whiteSpace=wrap;html=1;" parent="STSBaXRtEPZAdb3EAc6t-22" vertex="1">
          <mxGeometry y="282" width="330" height="26" as="geometry" />
        </mxCell>
        <mxCell id="STSBaXRtEPZAdb3EAc6t-95" value="+ backtesting(botId,period)" style="text;strokeColor=none;fillColor=none;align=left;verticalAlign=top;spacingLeft=4;spacingRight=4;overflow=hidden;rotatable=0;points=[[0,0.5],[1,0.5]];portConstraint=eastwest;whiteSpace=wrap;html=1;" parent="STSBaXRtEPZAdb3EAc6t-22" vertex="1">
          <mxGeometry y="308" width="330" height="26" as="geometry" />
        </mxCell>
        <mxCell id="STSBaXRtEPZAdb3EAc6t-28" value="&lt;div&gt;&amp;lt;&amp;lt;entity&amp;gt;&amp;gt;&lt;/div&gt;&lt;div&gt;Stock&lt;br&gt;&lt;/div&gt;" style="swimlane;fontStyle=1;align=center;verticalAlign=top;childLayout=stackLayout;horizontal=1;startSize=40;horizontalStack=0;resizeParent=1;resizeParentMax=0;resizeLast=0;collapsible=1;marginBottom=0;whiteSpace=wrap;html=1;fillColor=#647687;fontColor=#ffffff;strokeColor=#314354;" parent="1" vertex="1">
          <mxGeometry x="-300" y="470" width="160" height="230" as="geometry" />
        </mxCell>
        <mxCell id="STSBaXRtEPZAdb3EAc6t-29" value="- stockID: int {key}" style="text;strokeColor=none;fillColor=none;align=left;verticalAlign=top;spacingLeft=4;spacingRight=4;overflow=hidden;rotatable=0;points=[[0,0.5],[1,0.5]];portConstraint=eastwest;whiteSpace=wrap;html=1;" parent="STSBaXRtEPZAdb3EAc6t-28" vertex="1">
          <mxGeometry y="40" width="160" height="26" as="geometry" />
        </mxCell>
        <mxCell id="STSBaXRtEPZAdb3EAc6t-30" value="- portfolioID: int" style="text;strokeColor=none;fillColor=none;align=left;verticalAlign=top;spacingLeft=4;spacingRight=4;overflow=hidden;rotatable=0;points=[[0,0.5],[1,0.5]];portConstraint=eastwest;whiteSpace=wrap;html=1;" parent="STSBaXRtEPZAdb3EAc6t-28" vertex="1">
          <mxGeometry y="66" width="160" height="26" as="geometry" />
        </mxCell>
        <mxCell id="STSBaXRtEPZAdb3EAc6t-31" value="- transactionID: int" style="text;strokeColor=none;fillColor=none;align=left;verticalAlign=top;spacingLeft=4;spacingRight=4;overflow=hidden;rotatable=0;points=[[0,0.5],[1,0.5]];portConstraint=eastwest;whiteSpace=wrap;html=1;" parent="STSBaXRtEPZAdb3EAc6t-28" vertex="1">
          <mxGeometry y="92" width="160" height="26" as="geometry" />
        </mxCell>
        <mxCell id="STSBaXRtEPZAdb3EAc6t-32" value="- price: float" style="text;strokeColor=none;fillColor=none;align=left;verticalAlign=top;spacingLeft=4;spacingRight=4;overflow=hidden;rotatable=0;points=[[0,0.5],[1,0.5]];portConstraint=eastwest;whiteSpace=wrap;html=1;" parent="STSBaXRtEPZAdb3EAc6t-28" vertex="1">
          <mxGeometry y="118" width="160" height="26" as="geometry" />
        </mxCell>
        <mxCell id="STSBaXRtEPZAdb3EAc6t-33" value="- companyName: String" style="text;strokeColor=none;fillColor=none;align=left;verticalAlign=top;spacingLeft=4;spacingRight=4;overflow=hidden;rotatable=0;points=[[0,0.5],[1,0.5]];portConstraint=eastwest;whiteSpace=wrap;html=1;" parent="STSBaXRtEPZAdb3EAc6t-28" vertex="1">
          <mxGeometry y="144" width="160" height="26" as="geometry" />
        </mxCell>
        <mxCell id="STSBaXRtEPZAdb3EAc6t-34" value="- symbol: String" style="text;strokeColor=none;fillColor=none;align=left;verticalAlign=top;spacingLeft=4;spacingRight=4;overflow=hidden;rotatable=0;points=[[0,0.5],[1,0.5]];portConstraint=eastwest;whiteSpace=wrap;html=1;" parent="STSBaXRtEPZAdb3EAc6t-28" vertex="1">
          <mxGeometry y="170" width="160" height="26" as="geometry" />
        </mxCell>
        <mxCell id="STSBaXRtEPZAdb3EAc6t-35" value="" style="line;strokeWidth=1;fillColor=none;align=left;verticalAlign=middle;spacingTop=-1;spacingLeft=3;spacingRight=3;rotatable=0;labelPosition=right;points=[];portConstraint=eastwest;strokeColor=inherit;" parent="STSBaXRtEPZAdb3EAc6t-28" vertex="1">
          <mxGeometry y="196" width="160" height="8" as="geometry" />
        </mxCell>
        <mxCell id="STSBaXRtEPZAdb3EAc6t-36" value="&lt;div&gt;&amp;nbsp;&amp;nbsp;&amp;nbsp;&amp;nbsp;&amp;nbsp;&amp;nbsp;&amp;nbsp;&amp;nbsp;&amp;nbsp;&amp;nbsp;&amp;nbsp;&amp;nbsp;&amp;nbsp;&amp;nbsp;&amp;nbsp;&amp;nbsp;&amp;nbsp;&amp;nbsp;&amp;nbsp;&amp;nbsp;&amp;nbsp;&amp;nbsp;&amp;nbsp;&amp;nbsp;&amp;nbsp;&amp;nbsp;&amp;nbsp;&amp;nbsp;&amp;nbsp;&amp;nbsp;&amp;nbsp;&amp;nbsp;&amp;nbsp;&amp;nbsp;&amp;nbsp;&amp;nbsp;&amp;nbsp;&amp;nbsp;&amp;nbsp;&amp;nbsp;&amp;nbsp;&amp;nbsp;&amp;nbsp;&amp;nbsp;&amp;nbsp; &lt;br&gt;&lt;/div&gt;" style="text;strokeColor=none;fillColor=none;align=left;verticalAlign=top;spacingLeft=4;spacingRight=4;overflow=hidden;rotatable=0;points=[[0,0.5],[1,0.5]];portConstraint=eastwest;whiteSpace=wrap;html=1;" parent="STSBaXRtEPZAdb3EAc6t-28" vertex="1">
          <mxGeometry y="204" width="160" height="26" as="geometry" />
        </mxCell>
        <mxCell id="STSBaXRtEPZAdb3EAc6t-37" value="&lt;div&gt;&amp;lt;&amp;lt;entity&amp;gt;&amp;gt;&lt;/div&gt;&lt;div&gt;Transaction&lt;br&gt;&lt;/div&gt;" style="swimlane;fontStyle=1;align=center;verticalAlign=top;childLayout=stackLayout;horizontal=1;startSize=40;horizontalStack=0;resizeParent=1;resizeParentMax=0;resizeLast=0;collapsible=1;marginBottom=0;whiteSpace=wrap;html=1;fillColor=#647687;fontColor=#ffffff;strokeColor=#314354;" parent="1" vertex="1">
          <mxGeometry x="860" y="-60" width="310" height="230" as="geometry" />
        </mxCell>
        <mxCell id="STSBaXRtEPZAdb3EAc6t-38" value="- transactionID: int {key}" style="text;strokeColor=none;fillColor=none;align=left;verticalAlign=top;spacingLeft=4;spacingRight=4;overflow=hidden;rotatable=0;points=[[0,0.5],[1,0.5]];portConstraint=eastwest;whiteSpace=wrap;html=1;" parent="STSBaXRtEPZAdb3EAc6t-37" vertex="1">
          <mxGeometry y="40" width="310" height="26" as="geometry" />
        </mxCell>
        <mxCell id="STSBaXRtEPZAdb3EAc6t-39" value="- botID: int" style="text;strokeColor=none;fillColor=none;align=left;verticalAlign=top;spacingLeft=4;spacingRight=4;overflow=hidden;rotatable=0;points=[[0,0.5],[1,0.5]];portConstraint=eastwest;whiteSpace=wrap;html=1;" parent="STSBaXRtEPZAdb3EAc6t-37" vertex="1">
          <mxGeometry y="66" width="310" height="26" as="geometry" />
        </mxCell>
        <mxCell id="STSBaXRtEPZAdb3EAc6t-40" value="- quantity: int" style="text;strokeColor=none;fillColor=none;align=left;verticalAlign=top;spacingLeft=4;spacingRight=4;overflow=hidden;rotatable=0;points=[[0,0.5],[1,0.5]];portConstraint=eastwest;whiteSpace=wrap;html=1;" parent="STSBaXRtEPZAdb3EAc6t-37" vertex="1">
          <mxGeometry y="92" width="310" height="26" as="geometry" />
        </mxCell>
        <mxCell id="STSBaXRtEPZAdb3EAc6t-41" value="- date: date" style="text;strokeColor=none;fillColor=none;align=left;verticalAlign=top;spacingLeft=4;spacingRight=4;overflow=hidden;rotatable=0;points=[[0,0.5],[1,0.5]];portConstraint=eastwest;whiteSpace=wrap;html=1;" parent="STSBaXRtEPZAdb3EAc6t-37" vertex="1">
          <mxGeometry y="118" width="310" height="26" as="geometry" />
        </mxCell>
        <mxCell id="STSBaXRtEPZAdb3EAc6t-42" value="- price: float" style="text;strokeColor=none;fillColor=none;align=left;verticalAlign=top;spacingLeft=4;spacingRight=4;overflow=hidden;rotatable=0;points=[[0,0.5],[1,0.5]];portConstraint=eastwest;whiteSpace=wrap;html=1;" parent="STSBaXRtEPZAdb3EAc6t-37" vertex="1">
          <mxGeometry y="144" width="310" height="26" as="geometry" />
        </mxCell>
        <mxCell id="STSBaXRtEPZAdb3EAc6t-43" value="- companyName: String" style="text;strokeColor=none;fillColor=none;align=left;verticalAlign=top;spacingLeft=4;spacingRight=4;overflow=hidden;rotatable=0;points=[[0,0.5],[1,0.5]];portConstraint=eastwest;whiteSpace=wrap;html=1;" parent="STSBaXRtEPZAdb3EAc6t-37" vertex="1">
          <mxGeometry y="170" width="310" height="26" as="geometry" />
        </mxCell>
        <mxCell id="STSBaXRtEPZAdb3EAc6t-44" value="" style="line;strokeWidth=1;fillColor=none;align=left;verticalAlign=middle;spacingTop=-1;spacingLeft=3;spacingRight=3;rotatable=0;labelPosition=right;points=[];portConstraint=eastwest;strokeColor=inherit;" parent="STSBaXRtEPZAdb3EAc6t-37" vertex="1">
          <mxGeometry y="196" width="310" height="8" as="geometry" />
        </mxCell>
        <mxCell id="STSBaXRtEPZAdb3EAc6t-45" value="+ buyStock(symbol,companyName,quantity)" style="text;strokeColor=none;fillColor=none;align=left;verticalAlign=top;spacingLeft=4;spacingRight=4;overflow=hidden;rotatable=0;points=[[0,0.5],[1,0.5]];portConstraint=eastwest;whiteSpace=wrap;html=1;" parent="STSBaXRtEPZAdb3EAc6t-37" vertex="1">
          <mxGeometry y="204" width="310" height="26" as="geometry" />
        </mxCell>
        <mxCell id="STSBaXRtEPZAdb3EAc6t-46" value="&lt;div&gt;&amp;lt;&amp;lt;entity&amp;gt;&amp;gt;&lt;/div&gt;&lt;div&gt;Suggestion&lt;br&gt;&lt;/div&gt;" style="swimlane;fontStyle=1;align=center;verticalAlign=top;childLayout=stackLayout;horizontal=1;startSize=40;horizontalStack=0;resizeParent=1;resizeParentMax=0;resizeLast=0;collapsible=1;marginBottom=0;whiteSpace=wrap;html=1;fillColor=#647687;fontColor=#ffffff;strokeColor=#314354;" parent="1" vertex="1">
          <mxGeometry x="-50" y="570" width="380" height="178" as="geometry" />
        </mxCell>
        <mxCell id="STSBaXRtEPZAdb3EAc6t-47" value="- SuggestionID: int {key}" style="text;strokeColor=none;fillColor=none;align=left;verticalAlign=top;spacingLeft=4;spacingRight=4;overflow=hidden;rotatable=0;points=[[0,0.5],[1,0.5]];portConstraint=eastwest;whiteSpace=wrap;html=1;" parent="STSBaXRtEPZAdb3EAc6t-46" vertex="1">
          <mxGeometry y="40" width="380" height="26" as="geometry" />
        </mxCell>
        <mxCell id="STSBaXRtEPZAdb3EAc6t-48" value="- botID:int" style="text;strokeColor=none;fillColor=none;align=left;verticalAlign=top;spacingLeft=4;spacingRight=4;overflow=hidden;rotatable=0;points=[[0,0.5],[1,0.5]];portConstraint=eastwest;whiteSpace=wrap;html=1;" parent="STSBaXRtEPZAdb3EAc6t-46" vertex="1">
          <mxGeometry y="66" width="380" height="26" as="geometry" />
        </mxCell>
        <mxCell id="STSBaXRtEPZAdb3EAc6t-49" value="- SuggestionType: String" style="text;strokeColor=none;fillColor=none;align=left;verticalAlign=top;spacingLeft=4;spacingRight=4;overflow=hidden;rotatable=0;points=[[0,0.5],[1,0.5]];portConstraint=eastwest;whiteSpace=wrap;html=1;" parent="STSBaXRtEPZAdb3EAc6t-46" vertex="1">
          <mxGeometry y="92" width="380" height="26" as="geometry" />
        </mxCell>
        <mxCell id="STSBaXRtEPZAdb3EAc6t-50" value="- Answer: String" style="text;strokeColor=none;fillColor=none;align=left;verticalAlign=top;spacingLeft=4;spacingRight=4;overflow=hidden;rotatable=0;points=[[0,0.5],[1,0.5]];portConstraint=eastwest;whiteSpace=wrap;html=1;" parent="STSBaXRtEPZAdb3EAc6t-46" vertex="1">
          <mxGeometry y="118" width="380" height="26" as="geometry" />
        </mxCell>
        <mxCell id="STSBaXRtEPZAdb3EAc6t-51" value="" style="line;strokeWidth=1;fillColor=none;align=left;verticalAlign=middle;spacingTop=-1;spacingLeft=3;spacingRight=3;rotatable=0;labelPosition=right;points=[];portConstraint=eastwest;strokeColor=inherit;" parent="STSBaXRtEPZAdb3EAc6t-46" vertex="1">
          <mxGeometry y="144" width="380" height="8" as="geometry" />
        </mxCell>
        <mxCell id="STSBaXRtEPZAdb3EAc6t-52" value="+ getSuggestion(symbol,companyName,suggestionType)" style="text;strokeColor=none;fillColor=none;align=left;verticalAlign=top;spacingLeft=4;spacingRight=4;overflow=hidden;rotatable=0;points=[[0,0.5],[1,0.5]];portConstraint=eastwest;whiteSpace=wrap;html=1;" parent="STSBaXRtEPZAdb3EAc6t-46" vertex="1">
          <mxGeometry y="152" width="380" height="26" as="geometry" />
        </mxCell>
        <mxCell id="STSBaXRtEPZAdb3EAc6t-53" value="" style="endArrow=classic;html=1;rounded=0;edgeStyle=orthogonalEdgeStyle;exitX=0.287;exitY=1.018;exitDx=0;exitDy=0;exitPerimeter=0;" parent="1" source="STSBaXRtEPZAdb3EAc6t-93" edge="1">
          <mxGeometry width="50" height="50" relative="1" as="geometry">
            <mxPoint x="-579" y="420" as="sourcePoint" />
            <mxPoint x="-50" y="740" as="targetPoint" />
            <Array as="points">
              <mxPoint x="-580" y="420" />
              <mxPoint x="-579" y="420" />
              <mxPoint x="-579" y="740" />
            </Array>
          </mxGeometry>
        </mxCell>
        <mxCell id="STSBaXRtEPZAdb3EAc6t-54" value="&lt;div&gt;&amp;lt;&amp;lt;entity&amp;gt;&amp;gt;&lt;/div&gt;&lt;div&gt;Bot&lt;br&gt;&lt;/div&gt;" style="swimlane;fontStyle=1;align=center;verticalAlign=top;childLayout=stackLayout;horizontal=1;startSize=40;horizontalStack=0;resizeParent=1;resizeParentMax=0;resizeLast=0;collapsible=1;marginBottom=0;whiteSpace=wrap;html=1;fillColor=#647687;fontColor=#ffffff;strokeColor=#314354;" parent="1" vertex="1">
          <mxGeometry x="390" y="-50" width="340" height="360" as="geometry" />
        </mxCell>
        <mxCell id="STSBaXRtEPZAdb3EAc6t-55" value="- BotID: int {key}" style="text;strokeColor=none;fillColor=none;align=left;verticalAlign=top;spacingLeft=4;spacingRight=4;overflow=hidden;rotatable=0;points=[[0,0.5],[1,0.5]];portConstraint=eastwest;whiteSpace=wrap;html=1;" parent="STSBaXRtEPZAdb3EAc6t-54" vertex="1">
          <mxGeometry y="40" width="340" height="26" as="geometry" />
        </mxCell>
        <mxCell id="STSBaXRtEPZAdb3EAc6t-56" value="- selectedStocks: list" style="text;strokeColor=none;fillColor=none;align=left;verticalAlign=top;spacingLeft=4;spacingRight=4;overflow=hidden;rotatable=0;points=[[0,0.5],[1,0.5]];portConstraint=eastwest;whiteSpace=wrap;html=1;" parent="STSBaXRtEPZAdb3EAc6t-54" vertex="1">
          <mxGeometry y="66" width="340" height="26" as="geometry" />
        </mxCell>
        <mxCell id="STSBaXRtEPZAdb3EAc6t-58" value="- userID:int" style="text;strokeColor=none;fillColor=none;align=left;verticalAlign=top;spacingLeft=4;spacingRight=4;overflow=hidden;rotatable=0;points=[[0,0.5],[1,0.5]];portConstraint=eastwest;whiteSpace=wrap;html=1;" parent="STSBaXRtEPZAdb3EAc6t-54" vertex="1">
          <mxGeometry y="92" width="340" height="26" as="geometry" />
        </mxCell>
        <mxCell id="STSBaXRtEPZAdb3EAc6t-59" value="- risk: String" style="text;strokeColor=none;fillColor=none;align=left;verticalAlign=top;spacingLeft=4;spacingRight=4;overflow=hidden;rotatable=0;points=[[0,0.5],[1,0.5]];portConstraint=eastwest;whiteSpace=wrap;html=1;" parent="STSBaXRtEPZAdb3EAc6t-54" vertex="1">
          <mxGeometry y="118" width="340" height="26" as="geometry" />
        </mxCell>
        <mxCell id="STSBaXRtEPZAdb3EAc6t-60" value="- strategy: String" style="text;strokeColor=none;fillColor=none;align=left;verticalAlign=top;spacingLeft=4;spacingRight=4;overflow=hidden;rotatable=0;points=[[0,0.5],[1,0.5]];portConstraint=eastwest;whiteSpace=wrap;html=1;" parent="STSBaXRtEPZAdb3EAc6t-54" vertex="1">
          <mxGeometry y="144" width="340" height="26" as="geometry" />
        </mxCell>
        <mxCell id="STSBaXRtEPZAdb3EAc6t-61" value="" style="line;strokeWidth=1;fillColor=none;align=left;verticalAlign=middle;spacingTop=-1;spacingLeft=3;spacingRight=3;rotatable=0;labelPosition=right;points=[];portConstraint=eastwest;strokeColor=inherit;" parent="STSBaXRtEPZAdb3EAc6t-54" vertex="1">
          <mxGeometry y="170" width="340" height="8" as="geometry" />
        </mxCell>
        <mxCell id="STSBaXRtEPZAdb3EAc6t-80" value="+ predictPrice(setOfData)" style="text;strokeColor=none;fillColor=none;align=left;verticalAlign=top;spacingLeft=4;spacingRight=4;overflow=hidden;rotatable=0;points=[[0,0.5],[1,0.5]];portConstraint=eastwest;whiteSpace=wrap;html=1;" parent="STSBaXRtEPZAdb3EAc6t-54" vertex="1">
          <mxGeometry y="178" width="340" height="26" as="geometry" />
        </mxCell>
        <mxCell id="STSBaXRtEPZAdb3EAc6t-81" value="+ sellStock(symbol,companyName,quantity)" style="text;strokeColor=none;fillColor=none;align=left;verticalAlign=top;spacingLeft=4;spacingRight=4;overflow=hidden;rotatable=0;points=[[0,0.5],[1,0.5]];portConstraint=eastwest;whiteSpace=wrap;html=1;" parent="STSBaXRtEPZAdb3EAc6t-54" vertex="1">
          <mxGeometry y="204" width="340" height="26" as="geometry" />
        </mxCell>
        <mxCell id="STSBaXRtEPZAdb3EAc6t-82" value="+ buyStock(symbol,companyName,quantity)" style="text;strokeColor=none;fillColor=none;align=left;verticalAlign=top;spacingLeft=4;spacingRight=4;overflow=hidden;rotatable=0;points=[[0,0.5],[1,0.5]];portConstraint=eastwest;whiteSpace=wrap;html=1;" parent="STSBaXRtEPZAdb3EAc6t-54" vertex="1">
          <mxGeometry y="230" width="340" height="26" as="geometry" />
        </mxCell>
        <mxCell id="STSBaXRtEPZAdb3EAc6t-84" value="+ getSuggestion(symbol,companyName,suggestionType)" style="text;strokeColor=none;fillColor=none;align=left;verticalAlign=top;spacingLeft=4;spacingRight=4;overflow=hidden;rotatable=0;points=[[0,0.5],[1,0.5]];portConstraint=eastwest;whiteSpace=wrap;html=1;" parent="STSBaXRtEPZAdb3EAc6t-54" vertex="1">
          <mxGeometry y="256" width="340" height="26" as="geometry" />
        </mxCell>
        <mxCell id="STSBaXRtEPZAdb3EAc6t-87" value="+ viewReport(botId,period)" style="text;strokeColor=none;fillColor=none;align=left;verticalAlign=top;spacingLeft=4;spacingRight=4;overflow=hidden;rotatable=0;points=[[0,0.5],[1,0.5]];portConstraint=eastwest;whiteSpace=wrap;html=1;" parent="STSBaXRtEPZAdb3EAc6t-54" vertex="1">
          <mxGeometry y="282" width="340" height="26" as="geometry" />
        </mxCell>
        <mxCell id="E2JHOj5Hm3tcfyDZhWHu-2" value="+ customizeBot(slectedStocks,risk,strategy)" style="text;strokeColor=none;fillColor=none;align=left;verticalAlign=top;spacingLeft=4;spacingRight=4;overflow=hidden;rotatable=0;points=[[0,0.5],[1,0.5]];portConstraint=eastwest;whiteSpace=wrap;html=1;" parent="STSBaXRtEPZAdb3EAc6t-54" vertex="1">
          <mxGeometry y="308" width="340" height="26" as="geometry" />
        </mxCell>
        <mxCell id="STSBaXRtEPZAdb3EAc6t-96" value="+ backtesting(botId,period)" style="text;strokeColor=none;fillColor=none;align=left;verticalAlign=top;spacingLeft=4;spacingRight=4;overflow=hidden;rotatable=0;points=[[0,0.5],[1,0.5]];portConstraint=eastwest;whiteSpace=wrap;html=1;" parent="STSBaXRtEPZAdb3EAc6t-54" vertex="1">
          <mxGeometry y="334" width="340" height="26" as="geometry" />
        </mxCell>
        <mxCell id="STSBaXRtEPZAdb3EAc6t-63" style="edgeStyle=orthogonalEdgeStyle;rounded=0;orthogonalLoop=1;jettySize=auto;html=1;exitX=1;exitY=0.5;exitDx=0;exitDy=0;entryX=0.5;entryY=0;entryDx=0;entryDy=0;" parent="1" source="STSBaXRtEPZAdb3EAc6t-26" target="STSBaXRtEPZAdb3EAc6t-54" edge="1">
          <mxGeometry relative="1" as="geometry" />
        </mxCell>
        <mxCell id="STSBaXRtEPZAdb3EAc6t-64" value="" style="endArrow=classic;html=1;rounded=0;exitX=1;exitY=0.5;exitDx=0;exitDy=0;edgeStyle=orthogonalEdgeStyle;entryX=0.124;entryY=0;entryDx=0;entryDy=0;entryPerimeter=0;" parent="1" source="STSBaXRtEPZAdb3EAc6t-6" target="STSBaXRtEPZAdb3EAc6t-12" edge="1">
          <mxGeometry width="50" height="50" relative="1" as="geometry">
            <mxPoint x="30" y="300" as="sourcePoint" />
            <mxPoint x="150" y="250" as="targetPoint" />
            <Array as="points" />
          </mxGeometry>
        </mxCell>
        <mxCell id="STSBaXRtEPZAdb3EAc6t-65" value="" style="endArrow=classic;html=1;rounded=0;edgeStyle=orthogonalEdgeStyle;exitX=0;exitY=0.5;exitDx=0;exitDy=0;" parent="1" source="STSBaXRtEPZAdb3EAc6t-59" edge="1">
          <mxGeometry width="50" height="50" relative="1" as="geometry">
            <mxPoint x="250" y="180" as="sourcePoint" />
            <mxPoint x="130" y="180" as="targetPoint" />
            <Array as="points">
              <mxPoint x="130" y="107" />
            </Array>
          </mxGeometry>
        </mxCell>
        <mxCell id="STSBaXRtEPZAdb3EAc6t-66" value="&lt;div&gt;&amp;lt;&amp;lt;entity&amp;gt;&amp;gt;&lt;/div&gt;&lt;div&gt;Report&lt;br&gt;&lt;/div&gt;" style="swimlane;fontStyle=1;align=center;verticalAlign=top;childLayout=stackLayout;horizontal=1;startSize=40;horizontalStack=0;resizeParent=1;resizeParentMax=0;resizeLast=0;collapsible=1;marginBottom=0;whiteSpace=wrap;html=1;fillColor=#647687;fontColor=#ffffff;strokeColor=#314354;" parent="1" vertex="1">
          <mxGeometry x="430" y="400" width="320" height="178" as="geometry" />
        </mxCell>
        <mxCell id="STSBaXRtEPZAdb3EAc6t-67" value="- reprotID: int {key}" style="text;strokeColor=none;fillColor=none;align=left;verticalAlign=top;spacingLeft=4;spacingRight=4;overflow=hidden;rotatable=0;points=[[0,0.5],[1,0.5]];portConstraint=eastwest;whiteSpace=wrap;html=1;" parent="STSBaXRtEPZAdb3EAc6t-66" vertex="1">
          <mxGeometry y="40" width="320" height="26" as="geometry" />
        </mxCell>
        <mxCell id="STSBaXRtEPZAdb3EAc6t-68" value="- botID: int" style="text;strokeColor=none;fillColor=none;align=left;verticalAlign=top;spacingLeft=4;spacingRight=4;overflow=hidden;rotatable=0;points=[[0,0.5],[1,0.5]];portConstraint=eastwest;whiteSpace=wrap;html=1;" parent="STSBaXRtEPZAdb3EAc6t-66" vertex="1">
          <mxGeometry y="66" width="320" height="26" as="geometry" />
        </mxCell>
        <mxCell id="STSBaXRtEPZAdb3EAc6t-69" value="- period: date" style="text;strokeColor=none;fillColor=none;align=left;verticalAlign=top;spacingLeft=4;spacingRight=4;overflow=hidden;rotatable=0;points=[[0,0.5],[1,0.5]];portConstraint=eastwest;whiteSpace=wrap;html=1;" parent="STSBaXRtEPZAdb3EAc6t-66" vertex="1">
          <mxGeometry y="92" width="320" height="26" as="geometry" />
        </mxCell>
        <mxCell id="STSBaXRtEPZAdb3EAc6t-70" value="- userID:int" style="text;strokeColor=none;fillColor=none;align=left;verticalAlign=top;spacingLeft=4;spacingRight=4;overflow=hidden;rotatable=0;points=[[0,0.5],[1,0.5]];portConstraint=eastwest;whiteSpace=wrap;html=1;" parent="STSBaXRtEPZAdb3EAc6t-66" vertex="1">
          <mxGeometry y="118" width="320" height="26" as="geometry" />
        </mxCell>
        <mxCell id="STSBaXRtEPZAdb3EAc6t-71" value="" style="line;strokeWidth=1;fillColor=none;align=left;verticalAlign=middle;spacingTop=-1;spacingLeft=3;spacingRight=3;rotatable=0;labelPosition=right;points=[];portConstraint=eastwest;strokeColor=inherit;" parent="STSBaXRtEPZAdb3EAc6t-66" vertex="1">
          <mxGeometry y="144" width="320" height="8" as="geometry" />
        </mxCell>
        <mxCell id="STSBaXRtEPZAdb3EAc6t-72" value="+ viewReport(botId,period)" style="text;strokeColor=none;fillColor=none;align=left;verticalAlign=top;spacingLeft=4;spacingRight=4;overflow=hidden;rotatable=0;points=[[0,0.5],[1,0.5]];portConstraint=eastwest;whiteSpace=wrap;html=1;" parent="STSBaXRtEPZAdb3EAc6t-66" vertex="1">
          <mxGeometry y="152" width="320" height="26" as="geometry" />
        </mxCell>
        <mxCell id="STSBaXRtEPZAdb3EAc6t-74" value="" style="endArrow=classic;html=1;rounded=0;exitX=1;exitY=0.5;exitDx=0;exitDy=0;entryX=0;entryY=0.5;entryDx=0;entryDy=0;" parent="1" source="STSBaXRtEPZAdb3EAc6t-2" target="STSBaXRtEPZAdb3EAc6t-55" edge="1">
          <mxGeometry width="50" height="50" relative="1" as="geometry">
            <mxPoint x="180" y="90" as="sourcePoint" />
            <mxPoint x="230" y="40" as="targetPoint" />
          </mxGeometry>
        </mxCell>
        <mxCell id="STSBaXRtEPZAdb3EAc6t-75" value="" style="endArrow=classic;html=1;rounded=0;edgeStyle=orthogonalEdgeStyle;exitX=0;exitY=0.5;exitDx=0;exitDy=0;" parent="1" source="STSBaXRtEPZAdb3EAc6t-84" edge="1">
          <mxGeometry width="50" height="50" relative="1" as="geometry">
            <mxPoint x="320" y="240" as="sourcePoint" />
            <mxPoint x="320" y="570" as="targetPoint" />
            <Array as="points">
              <mxPoint x="390" y="240" />
              <mxPoint x="320" y="240" />
            </Array>
          </mxGeometry>
        </mxCell>
        <mxCell id="STSBaXRtEPZAdb3EAc6t-76" value="" style="endArrow=classic;html=1;rounded=0;entryX=0.75;entryY=0;entryDx=0;entryDy=0;exitX=0;exitY=0.5;exitDx=0;exitDy=0;edgeStyle=orthogonalEdgeStyle;" parent="1" source="STSBaXRtEPZAdb3EAc6t-15" target="STSBaXRtEPZAdb3EAc6t-28" edge="1">
          <mxGeometry width="50" height="50" relative="1" as="geometry">
            <mxPoint x="-210" y="247" as="sourcePoint" />
            <mxPoint x="60" y="303" as="targetPoint" />
          </mxGeometry>
        </mxCell>
        <mxCell id="STSBaXRtEPZAdb3EAc6t-98" value="" style="endArrow=classic;html=1;rounded=0;exitX=0.5;exitY=1;exitDx=0;exitDy=0;entryX=0.409;entryY=0.006;entryDx=0;entryDy=0;entryPerimeter=0;" parent="1" source="STSBaXRtEPZAdb3EAc6t-54" target="STSBaXRtEPZAdb3EAc6t-66" edge="1">
          <mxGeometry width="50" height="50" relative="1" as="geometry">
            <mxPoint x="900" y="340" as="sourcePoint" />
            <mxPoint x="950" y="290" as="targetPoint" />
          </mxGeometry>
        </mxCell>
        <mxCell id="STSBaXRtEPZAdb3EAc6t-99" value="" style="endArrow=classic;html=1;rounded=0;exitX=1;exitY=0.5;exitDx=0;exitDy=0;entryX=0.002;entryY=0.916;entryDx=0;entryDy=0;entryPerimeter=0;" parent="1" source="STSBaXRtEPZAdb3EAc6t-59" target="STSBaXRtEPZAdb3EAc6t-41" edge="1">
          <mxGeometry width="50" height="50" relative="1" as="geometry">
            <mxPoint x="850" y="140" as="sourcePoint" />
            <mxPoint x="900" y="90" as="targetPoint" />
          </mxGeometry>
        </mxCell>
      </root>
    </mxGraphModel>
  </diagram>
</mxfile>
